<svg version="1" xmlns="http://www.w3.org/2000/svg" width="1333.333" height="1333.333" viewBox="0 0 1000.000000 1000.000000"><path d="M148.9 13.5c-.3.2-4.5.7-9.4 1-14.5 1.1-17.3 1.5-31 4.1-35.8 7-63.6 20.1-82 38.8-4.7 4.7-9.3 10.6-11.2 14.1-3.1 6-8.8 21.3-9.8 26.3-4.4 23-5 29.7-5 58.7.1 24.5 1 42.8 3 56 .2 1.6.7 5.7 1 9 .5 5.4 2.1 17.1 3 22.8.2 1.2.6 4 1 6.2.5 3.5 1.6 10 3.1 18.5.2 1.4.8 5.2 1.4 8.5 1.8 10.6 10.8 53.5 14.5 69 2 8.2 3.8 15.7 4 16.5.2 1.1 6.2 24.8 7.9 31.5.2.5.6 1.7.9 2.5.3.8 1 3.7 1.7 6.5 1.5 6.4 12.2 44.2 15.9 56 1.5 4.9 3.8 12.4 5.1 16.5 7.4 24.5 27.9 85.3 35.5 105.5 1.5 3.8 3 8.1 3.5 9.5 3.8 11.9 26.9 69.8 37.8 95 18.8 43.3 39.8 86.4 48 98.1 5.3 7.7 19.2 20.9 22 20.9.6 0 1.2.3 1.4.8.5 1.2 12 7 19.2 9.7 8.2 3.1 19.8 6.1 26.6 7 2.9.4 6.2.9 7.4 1.1 8.7 2 44.2 2.5 60.6 1 11.1-1.1 29.1-3.5 38-5.2 4.7-.8 9.9-1.8 11.5-2 1.7-.3 9.8-2.1 18-4 8.3-2 15.7-3.7 16.6-3.9.9-.2 4.9-1.3 9-2.5 4-1.2 8.4-2.4 9.6-2.6 1.3-.3 12.6-3.8 25.1-8 24.1-8 51.7-18.6 72.2-27.8 6.9-3.1 12.8-5.6 13.2-5.6.5 0-7.8 20.7-12.2 30.5-3.7 8.3-16 37.8-16 38.6 0 1.2-2.2 1.1-9.5-.6-3.8-.8-10.4-1.2-18-1-10.3.2-13.3.7-21.5 3.4-14.9 5-26.5 12.6-35.6 23.5-29.8 35.4-20.8 89 19.8 117.3 12.9 9 27.9 13.3 45.1 12.8 16.2-.4 28.6-4.4 42.2-13.6 13.8-9.3 27.7-28.8 31.2-43.4.2-1.1.7-3.4 1.1-5 .4-1.7.7-9.1.6-16.5 0-12.8-.2-14-3.6-23.7-6.2-18-17.4-33.1-31.6-42.6l-7-4.7 5.5-13.3c3-7.2 6.1-14.6 6.8-16.2 3.6-8.4 21.3-51.3 21.9-53.2.5-1.5 3.7-3.9 9.4-6.9 10-5.4 26-14.6 31.2-17.8 33-21 49.9-35.2 64.4-53.8 3.3-4.2 6.3-7.5 6.7-7.3.3.3 3.2 5.5 6.4 11.7 3.2 6.2 7.4 14.4 9.5 18.3 2 3.8 7 13.3 11 21 4 7.7 10.2 19.6 13.8 26.5 13.6 26.2 19.6 37.7 22.8 43.6l3.3 6.1-5.1 4.9c-26.9 26.2-25 68.5 4 90.7 6.3 4.8 14.3 8.8 21.2 10.7 5.1 1.4 19.7 1.9 25.2.8 18.7-3.8 35.3-19.3 42.1-39.6 3.2-9.8 3.2-28-.2-37.1-3.4-9.5-6.8-14.9-13-21.4-6.3-6.6-12.8-11-20.3-13.9-7.2-2.7-7.9-2.9-19.3-3.4-7.4-.4-11.3-.1-15 1-2.7.8-5.2 1.2-5.6.8-.6-.7-5.8-10.7-23.9-45.7-4.5-8.8-9.5-18.3-11-21-1.5-2.8-7.1-13.6-12.5-24-5.4-10.5-12.8-24.9-16.6-32.1l-6.9-13.1 7.9-11.9c10.2-15.6 28.1-46.2 34.5-59.1 1-2.1 1.6-2.2 7.6-1.8 3.6.2 13.5.7 22 1 27.6 1 41.3 1.5 52.5 1.9 6.1.3 19.1.8 29 1.2 20.2.7 30.6 1.2 31.8 1.3.4.1.7 1.6.7 3.3 0 1.8.5 5.3 1.1 7.8.6 2.5 1.2 4.9 1.3 5.5.4 2.5 3.3 8.5 6.4 13.5 17 27.5 54.4 39 84.7 26.2 10.9-4.5 20.4-12 28.2-21.9 5-6.4 9-14.6 11.4-23.3 2.7-9.9 2-25.9-1.7-36.8-8.3-25.2-29-43-54.1-46.7-31.1-4.6-61.6 12.1-72.7 39.8-2.2 5.6-2.9 8.1-4 15.4-.1.7-.5 1.5-.9 1.9-.6.6-9.4.6-24.2-.1-3.8-.2-15.1-.6-25-1-9.9-.3-22-.8-27-1-11.6-.5-43.2-1.7-51.2-1.9-3.5-.1-6.5-.5-6.8-.8-.3-.3 1.9-5.6 4.8-11.9 11.4-24.2 17.3-37.9 25.9-60.4 5-13 13.6-36.7 14.3-39.5.2-.8 1.5-5.1 3-9.5 9.5-28.8 21.7-81 25-107 .3-2.8.8-6.4 1-8 1.6-11.3 2.8-28.8 2.9-42.8l.1-10.8 6.6-6.7c10.6-10.9 15.3-22.4 15.2-37.7 0-16.2-5.2-29.7-15.5-40.3-12.2-12.6-24.7-17.9-43.8-18.3-3.8-.1-7.2-1-11-2.8-3-1.5-8.4-3.8-12-5.1-7.6-2.6-18.6-6.7-21.5-8-1.1-.4-3.6-1.3-5.5-2s-4.4-1.6-5.5-2.1c-1.8-.8-36.8-14-55.5-20.9-4.1-1.6-13.8-5.2-21.5-8-55.8-20.8-140.9-49.5-174.5-59-3.6-1-13.5-3.8-22-6.3-36.4-10.6-99.2-26.2-116.5-29-1.6-.3-4.1-.8-5.5-1.1-1.4-.3-3.6-.8-5-1-1.4-.3-4.7-.9-7.5-1.5-2.7-.5-7-1.2-9.5-1.6-2.5-.3-6.3-1-8.5-1.5-4.2-.9-22.2-3.6-35.7-5.4-9.8-1.3-20.8-2.5-28.8-3.2-3-.2-7.5-.6-10-.9-5.5-.7-64.6-1.6-65.1-1z"/></svg>