<svg xmlns="http://www.w3.org/2000/svg" width="654" height="284" viewBox="0 0 654.4 284" style="enable-background:new 0 0 654.447 283.969;version:1"><style>.a{display:none;}.b{fill:#FFFFFF;}.c{fill:#FFFFFF;}.d{fill:#FFFFFF;}</style><path d="M491.5 38.3l48.1 92.4 27.7-65.7c-5.5-3.3-9.1-9.8-8.8-16.1 0.4-10.7 8.2-17.9 17.7-17.6 10 0.4 17.9 8.2 17.5 18.9 -0.3 9.4-8.8 16.7-18.9 16.3 -1.3 0-2.5-0.1-3.8-0.1L543.3 134.1l69.7 2.6c1.1-11.3 10.8-18.5 21.4-18.1 11.3 0.4 20.4 10.2 19.9 22.1 -0.4 10.7-10.2 19.7-21.5 19.3 -10.7-0.4-19.8-8.3-20-19l-69.1-2.6 34 65.5c1.9-1.2 4.4-1.1 7-1 9.4 0.4 16.7 8.8 16.3 18.2 -0.4 10-8.2 17.9-17.7 17.6 -10.1-0.4-17.9-8.9-17.5-18.9 0.2-5.6 3.6-11.2 7.5-14.2l-33.4-64.2 -31.9 76.8c11.1 6.1 16.2 20.1 11.4 31.3 -5.5 12.4-19.6 18.1-31.9 12.6 -11.7-5.5-18.1-19.6-13.3-32 4.9-11.8 18.3-16.9 29.5-13.4l33.2-78.7 -88.6-3.3c-1.7 10.6-11.4 17.8-21.4 17.4 -11.9-0.4-21-10.2-20.6-20.9 0.4-11.9 10.2-21 22.2-20.6 10 0.4 19.2 8.3 20 19.6l88 3.3 -48.7-93.1c-10.2 3.4-21.4-0.8-26-10.4 -4.7-9.6-1.7-22.7 8.6-28 10.3-5.3 22.7-1 28 8.6C503.5 20.5 500.6 32.4 491.5 38.3" class="a"/><polygon points="113.9 131.3 148.4 131.3 148.4 142.6 137.2 142.6 137.2 229.7 125.6 229.7 125.6 142.6 113.9 142.6 " class="a"/><polygon points="387.3 182.9 421.8 182.9 421.8 194.1 410.5 194.1 410.5 281.3 398.9 281.3 398.9 194.1 387.3 194.1 " class="a"/><polygon points="153.5 131.3 182.6 131.3 182.6 142.3 165 142.3 165 175.2 182.6 175.2 182.6 185.3 164.9 185.3 164.9 218.9 182.6 218.9 182.6 229.7 153.5 229.7 " class="a"/><polygon points="312.5 182.9 341.5 182.9 341.5 193.8 324 193.8 324 226.8 341.5 226.8 341.5 236.9 323.9 236.9 323.9 270.4 341.5 270.4 341.5 281.3 312.5 281.3 " class="a"/><polygon points="278.2 182.9 307.3 182.9 307.3 193.8 289.7 193.8 289.7 226.8 307.3 226.8 307.3 236.9 289.6 236.9 289.7 281.3 278.2 281.3 " class="a"/><polygon points="233.1 131.3 233.1 229.7 244.3 229.7 244.3 185.7 257.3 185.7 257.3 229.7 268.7 229.7 268.7 131.3 257.8 131.3 257.8 173.9 244.1 173.9 244.1 131.3 " class="a"/><path d="M225 165.8h-10.2v-15.9c0 0 0.4-9.5-7.1-9.9 -8.3-0.4-7.4 10-7.4 10v63.1c0 0 0.5 8.2 6.8 8.3 6 0.1 7.5-3.8 7.5-8.2 0-3.8 0-16.7 0-16.7h10.7v16.7c0 5.6-1.8 18.3-17.9 18.3 -14.9 0-17.9-13-17.9-14.7 0-0.6 0-66.4 0-66.4s-0.5-15.7 10-19.2c7.9-2.7 16.2-0.5 19.6 2.6 2 1.9 5.2 6.8 5.6 11.5C225.2 150 225 165.8 225 165.8" class="a"/><path d="M382.8 218.8h-10.2v-15.9c0 0 1.2-9.5-7.1-9.9 -8.6-0.3-7.4 10-7.4 10s-0.2 10 0 13.8c0.3 7.9 20.2 21.1 23 27.4 0.6 1.4 1.2 2.9 1.3 4.6 0.4 6.1 0.3 12.5 0 22 -0.5 12.2-19.9 18.2-30.8 8 -3.1-2.9-4.2-7.9-4.2-11.7v-18.5h10.6c0 0 0 14.9 0 18.5 0 5.6 2.4 6.4 7.3 6.5 4.9 0.2 6.6-2.6 6.6-5 0-7.7 0.5-9.5-0.5-17.1 -1-8.2-24-22.1-24-32V203.5c0 0 0-15.5 10-19.2 7.8-2.9 16.5-0.8 19.6 2.6 3 3.3 5.2 6.8 5.6 11.5C383 203 382.8 218.8 382.8 218.8" class="a"/><g><path d="M95.3 169.1h-7.9v-12.4c0 0 0.3-7.4-5.6-7.7 -6.5-0.3-5.8 7.8-5.8 7.8v49.2c0 0 0.4 6.4 5.3 6.5 4.7 0.1 5.8-3 5.9-6.4 0-3 0-13 0-13h8.3v13c0 4.4-1.4 14.3-14 14.3 -11.6 0-14-10.2-14-11.5V157.2c0 0-0.4-12.3 7.8-15 6.2-2.1 12.7-0.4 15.3 2 1.6 1.5 4 5.3 4.4 9C95.4 156.8 95.3 169.1 95.3 169.1" class="a"/><polygon points="45.2 142.1 45.2 219 64.4 219 64.4 210.5 54 210.5 54 142.1 " class="a"/><polygon points="11.6 142.1 20.7 219 33.4 219 41.8 142.1 33.1 142.1 26.7 202.3 20.1 142.1 " class="a"/></g><path d="M0 131.3v98.4h106.6V131.3H0zM33.4 219H20.7l-9.1-76.8h8.4l6.7 60.2 6.4-60.2h8.7L33.4 219zM64.4 219H45.2v-76.8h8.8v68.4h10.4V219zM95.5 206.1c0 4.4-1.4 14.3-14 14.3 -11.6 0-14-10.2-14-11.5V157.2c0 0-0.4-12.3 7.8-15 6.2-2.1 12.7-0.4 15.3 2 1.6 1.5 4 5.3 4.4 9 0.4 3.7 0.3 16 0.3 16h-7.9v-12.4c0 0 0.3-7.4-5.6-7.7 -6.5-0.3-5.8 7.8-5.8 7.8v49.2c0 0 0.4 6.4 5.3 6.5 4.7 0.1 5.8-3 5.9-6.4 0-3 0-13 0-13h8.3V206.1z" class="a"/><path d="M491.5 38.3l48.1 92.4 27.7-65.7c-5.5-3.3-9.1-9.8-8.8-16.1 0.4-10.7 8.2-17.9 17.7-17.6 10 0.4 17.9 8.2 17.5 18.9 -0.3 9.4-8.8 16.7-18.9 16.3 -1.3 0-2.5-0.1-3.8-0.1L543.3 134.1l69.7 2.6c1.1-11.3 10.8-18.5 21.4-18.1 11.3 0.4 20.4 10.2 19.9 22.1 -0.4 10.7-10.2 19.7-21.5 19.3 -10.7-0.4-19.8-8.3-20-19l-69.1-2.6 34 65.5c1.9-1.2 4.4-1.1 7-1 9.4 0.4 16.7 8.8 16.3 18.2 -0.4 10-8.2 17.9-17.7 17.6 -10.1-0.4-17.9-8.9-17.5-18.9 0.2-5.6 3.6-11.2 7.5-14.2l-33.4-64.2 -31.9 76.8c11.1 6.1 16.2 20.1 11.4 31.3 -5.5 12.4-19.6 18.1-31.9 12.6 -11.7-5.5-18.1-19.6-13.3-32 4.9-11.8 18.3-16.9 29.5-13.4l33.2-78.7 -88.6-3.3c-1.7 10.6-11.4 17.8-21.4 17.4 -11.9-0.4-21-10.2-20.6-20.9 0.4-11.9 10.2-21 22.2-20.6 10 0.4 19.2 8.3 20 19.6l88 3.3 -48.7-93.1c-10.2 3.4-21.4-0.8-26-10.4 -4.7-9.6-1.7-22.7 8.6-28 10.3-5.3 22.7-1 28 8.6C503.5 20.5 500.6 32.4 491.5 38.3" class="c"/><polygon points="113.9 131.3 148.4 131.3 148.4 142.6 137.2 142.6 137.2 229.7 125.6 229.7 125.6 142.6 113.9 142.6 " class="d"/><polygon points="387.3 182.9 421.8 182.9 421.8 194.1 410.5 194.1 410.5 281.3 398.9 281.3 398.9 194.1 387.3 194.1 " class="d"/><polygon points="153.5 131.3 182.6 131.3 182.6 142.3 165 142.3 165 175.2 182.6 175.2 182.6 185.3 164.9 185.3 164.9 218.9 182.6 218.9 182.6 229.7 153.5 229.7 " class="d"/><polygon points="312.5 182.9 341.5 182.9 341.5 193.8 324 193.8 324 226.8 341.5 226.8 341.5 236.9 323.9 236.9 323.9 270.4 341.5 270.4 341.5 281.3 312.5 281.3 " class="d"/><polygon points="278.2 182.9 307.3 182.9 307.3 193.8 289.7 193.8 289.7 226.8 307.3 226.8 307.3 236.9 289.6 236.9 289.7 281.3 278.2 281.3 " class="d"/><polygon points="233.1 131.3 233.1 229.7 244.3 229.7 244.3 185.7 257.3 185.7 257.3 229.7 268.7 229.7 268.7 131.3 257.8 131.3 257.8 173.9 244.1 173.9 244.1 131.3 " class="d"/><path d="M225 165.8h-10.2v-15.9c0 0 0.4-9.5-7.1-9.9 -8.3-0.4-7.4 10-7.4 10v63.1c0 0 0.5 8.2 6.8 8.3 6 0.1 7.5-3.8 7.5-8.2 0-3.8 0-16.7 0-16.7h10.7v16.7c0 5.6-1.8 18.3-17.9 18.3 -14.9 0-17.9-13-17.9-14.7 0-0.6 0-66.4 0-66.4s-0.5-15.7 10-19.2c7.9-2.7 16.2-0.5 19.6 2.6 2 1.9 5.2 6.8 5.6 11.5C225.2 150 225 165.8 225 165.8" class="d"/><path d="M382.8 218.8h-10.2v-15.9c0 0 1.2-9.5-7.1-9.9 -8.6-0.3-7.4 10-7.4 10s-0.2 10 0 13.8c0.3 7.9 20.2 21.1 23 27.4 0.6 1.4 1.2 2.9 1.3 4.6 0.4 6.1 0.3 12.5 0 22 -0.5 12.2-19.9 18.2-30.8 8 -3.1-2.9-4.2-7.9-4.2-11.7v-18.5h10.6c0 0 0 14.9 0 18.5 0 5.6 2.4 6.4 7.3 6.5 4.9 0.2 6.6-2.6 6.6-5 0-7.7 0.5-9.5-0.5-17.1 -1-8.2-24-22.1-24-32V203.5c0 0 0-15.5 10-19.2 7.8-2.9 16.5-0.8 19.6 2.6 3 3.3 5.2 6.8 5.6 11.5C383 203 382.8 218.8 382.8 218.8" class="d"/><g><path d="M95.3 169.1h-7.9v-12.4c0 0 0.3-7.4-5.6-7.7 -6.5-0.3-5.8 7.8-5.8 7.8v49.2c0 0 0.4 6.4 5.3 6.5 4.7 0.1 5.8-3 5.9-6.4 0-3 0-13 0-13h8.3v13c0 4.4-1.4 14.3-14 14.3 -11.6 0-14-10.2-14-11.5V157.2c0 0-0.4-12.3 7.8-15 6.2-2.1 12.7-0.4 15.3 2 1.6 1.5 4 5.3 4.4 9C95.4 156.8 95.3 169.1 95.3 169.1" class="a"/><polygon points="45.2 142.1 45.2 219 64.4 219 64.4 210.5 54 210.5 54 142.1 " class="a"/><polygon points="11.6 142.1 20.7 219 33.4 219 41.8 142.1 33.1 142.1 26.7 202.3 20.1 142.1 " class="a"/></g><path d="M0 131.3v98.4h106.6V131.3H0zM33.4 219H20.7l-9.1-76.8h8.4l6.7 60.2 6.4-60.2h8.7L33.4 219zM64.4 219H45.2v-76.8h8.8v68.4h10.4V219zM95.5 206.1c0 4.4-1.4 14.3-14 14.3 -11.6 0-14-10.2-14-11.5V157.2c0 0-0.4-12.3 7.8-15 6.2-2.1 12.7-0.4 15.3 2 1.6 1.5 4 5.3 4.4 9 0.4 3.7 0.3 16 0.3 16h-7.9v-12.4c0 0 0.3-7.4-5.6-7.7 -6.5-0.3-5.8 7.8-5.8 7.8v49.2c0 0 0.4 6.4 5.3 6.5 4.7 0.1 5.8-3 5.9-6.4 0-3 0-13 0-13h8.3V206.1z" class="b"/></svg>